name ./resultDataOpenSim/trcMotMarkerGrf/sub06/grf-02-04.mot
datacolumns 19
datarows 22
range 1.47600000 1.56000000
endheader

                time	     ground_force_vx	     ground_force_vy	     ground_force_vz	     ground_force_px	     ground_force_py	     ground_force_pz	   l_ground_force_vx	   l_ground_force_vy	   l_ground_force_vz	   l_ground_force_px	   l_ground_force_py	   l_ground_force_pz	     ground_torque_x	     ground_torque_y	     ground_torque_z	   l_ground_torque_x	   l_ground_torque_y	   l_ground_torque_z	
          1.47600000	         77.22618601	        633.22893708	        -20.19420900	          0.86671664	          0.00000000	          0.12907561	          0.00000000	          0.00000000	          0.00000000	          0.00000000	          0.00000000	          0.00000000	          0.00000000	          4.09625938	          0.00000000	          0.00000000	          0.00000000	          0.00000000	
          1.48000000	         84.21555732	        652.46861308	        -21.83960917	          0.86706038	          0.00000000	          0.12862256	          0.00000000	          0.00000000	          0.00000000	          0.00000000	          0.00000000	          0.00000000	          0.00000000	          4.27232503	          0.00000000	          0.00000000	          0.00000000	          0.00000000	
          1.48400000	         91.06136242	        671.14806148	        -23.23297747	          0.86744437	          0.00000000	          0.12819356	          0.00000000	          0.00000000	          0.00000000	          0.00000000	          0.00000000	          0.00000000	          0.00000000	          4.43251678	          0.00000000	          0.00000000	          0.00000000	          0.00000000	
          1.48800000	         97.48567824	        689.06008579	        -24.19057856	          0.86788145	          0.00000000	          0.12778490	          0.00000000	          0.00000000	          0.00000000	          0.00000000	          0.00000000	          0.00000000	          0.00000000	          4.57954125	          0.00000000	          0.00000000	          0.00000000	          0.00000000	
          1.49200000	        103.37024598	        705.99805780	        -24.62917183	          0.86838964	          0.00000000	          0.12739115	          0.00000000	          0.00000000	          0.00000000	          0.00000000	          0.00000000	          0.00000000	          0.00000000	          4.71392127	          0.00000000	          0.00000000	          0.00000000	          0.00000000	
          1.49600000	        108.76306847	        721.75848561	        -24.57254451	          0.86896172	          0.00000000	          0.12700723	          0.00000000	          0.00000000	          0.00000000	          0.00000000	          0.00000000	          0.00000000	          0.00000000	          4.83398203	          0.00000000	          0.00000000	          0.00000000	          0.00000000	
          1.50000000	        113.84771583	        736.14785349	        -24.13859511	          0.86956536	          0.00000000	          0.12663217	          0.00000000	          0.00000000	          0.00000000	          0.00000000	          0.00000000	          0.00000000	          0.00000000	          4.93704370	          0.00000000	          0.00000000	          0.00000000	          0.00000000	
          1.50400000	        118.88483279	        749.00418875	        -23.51581176	          0.87017374	          0.00000000	          0.12627372	          0.00000000	          0.00000000	          0.00000000	          0.00000000	          0.00000000	          0.00000000	          0.00000000	          5.02112558	          0.00000000	          0.00000000	          0.00000000	          0.00000000	
          1.50800000	        124.13502118	        760.20565906	        -22.93104604	          0.87075111	          0.00000000	          0.12593717	          0.00000000	          0.00000000	          0.00000000	          0.00000000	          0.00000000	          0.00000000	          0.00000000	          5.08639687	          0.00000000	          0.00000000	          0.00000000	          0.00000000	
          1.51200000	        129.77902254	        769.65298302	        -22.60723211	          0.87127370	          0.00000000	          0.12562521	          0.00000000	          0.00000000	          0.00000000	          0.00000000	          0.00000000	          0.00000000	          0.00000000	          5.13593056	          0.00000000	          0.00000000	          0.00000000	          0.00000000	
          1.51600000	        135.86190825	        777.25428023	        -22.71923206	          0.87173839	          0.00000000	          0.12534080	          0.00000000	          0.00000000	          0.00000000	          0.00000000	          0.00000000	          0.00000000	          0.00000000	          5.17567602	          0.00000000	          0.00000000	          0.00000000	          0.00000000	
          1.52000000	        142.28067706	        782.93070597	        -23.35661659	          0.87215046	          0.00000000	          0.12508625	          0.00000000	          0.00000000	          0.00000000	          0.00000000	          0.00000000	          0.00000000	          0.00000000	          5.21364033	          0.00000000	          0.00000000	          0.00000000	          0.00000000	
          1.52400000	        148.82207991	        786.63646527	        -24.49974125	          0.87253956	          0.00000000	          0.12485864	          0.00000000	          0.00000000	          0.00000000	          0.00000000	          0.00000000	          0.00000000	          0.00000000	          5.25813187	          0.00000000	          0.00000000	          0.00000000	          0.00000000	
          1.52800000	        155.24520852	        788.37160409	        -26.01621942	          0.87293802	          0.00000000	          0.12464461	          0.00000000	          0.00000000	          0.00000000	          0.00000000	          0.00000000	          0.00000000	          0.00000000	          5.31494338	          0.00000000	          0.00000000	          0.00000000	          0.00000000	
          1.53200000	        161.38979118	        788.16273083	        -27.67213877	          0.87337188	          0.00000000	          0.12443158	          0.00000000	          0.00000000	          0.00000000	          0.00000000	          0.00000000	          0.00000000	          0.00000000	          5.38384702	          0.00000000	          0.00000000	          0.00000000	          0.00000000	
          1.53600000	        167.26749386	        786.02244012	        -29.15629614	          0.87386391	          0.00000000	          0.12421063	          0.00000000	          0.00000000	          0.00000000	          0.00000000	          0.00000000	          0.00000000	          0.00000000	          5.45565413	          0.00000000	          0.00000000	          0.00000000	          0.00000000	
          1.54000000	        173.05315609	        781.91627799	        -30.15347984	          0.87439739	          0.00000000	          0.12397167	          0.00000000	          0.00000000	          0.00000000	          0.00000000	          0.00000000	          0.00000000	          0.00000000	          5.51186445	          0.00000000	          0.00000000	          0.00000000	          0.00000000	
          1.54400000	        178.95139250	        775.76219296	        -30.46537850	          0.87490255	          0.00000000	          0.12371425	          0.00000000	          0.00000000	          0.00000000	          0.00000000	          0.00000000	          0.00000000	          0.00000000	          5.52867761	          0.00000000	          0.00000000	          0.00000000	          0.00000000	
          1.54800000	        185.04748742	        767.48620969	        -30.06274377	          0.87534087	          0.00000000	          0.12345334	          0.00000000	          0.00000000	          0.00000000	          0.00000000	          0.00000000	          0.00000000	          0.00000000	          5.48500657	          0.00000000	          0.00000000	          0.00000000	          0.00000000	
          1.55200000	        191.26280606	        757.09704347	        -29.01826674	          0.87572389	          0.00000000	          0.12319333	          0.00000000	          0.00000000	          0.00000000	          0.00000000	          0.00000000	          0.00000000	          0.00000000	          5.37108049	          0.00000000	          0.00000000	          0.00000000	          0.00000000	
          1.55600000	        197.41056711	        744.68114257	        -27.44734606	          0.87606654	          0.00000000	          0.12291971	          0.00000000	          0.00000000	          0.00000000	          0.00000000	          0.00000000	          0.00000000	          0.00000000	          5.19303408	          0.00000000	          0.00000000	          0.00000000	          0.00000000	
          1.56000000	        203.25117270	        730.30112823	        -25.51370294	          0.87636854	          0.00000000	          0.12262575	          0.00000000	          0.00000000	          0.00000000	          0.00000000	          0.00000000	          0.00000000	          0.00000000	          4.97081340	          0.00000000	          0.00000000	          0.00000000	          0.00000000	
